<svg width="180" height="180" viewBox="0 0 180 180" fill="none" xmlns="http://www.w3.org/2000/svg">
<path d="M49.9209 5C66.141 5 80.1064 14.6545 86.3838 28.5303C94.1902 14.4964 109.168 5.00002 126.366 5H132.461C155.955 5.00013 175 24.0454 175 47.5391C175 71.0328 155.955 90.079 132.461 90.0791H132.539C155.989 90.0791 175 109.089 175 132.539C175 155.989 155.989 175 132.539 175H126.366C109.168 175 94.1901 165.503 86.3838 151.469C80.1065 165.345 66.1413 175 49.9209 175H45C22.9086 175 5 157.091 5 135V45C5 22.9086 22.9086 5 45 5H49.9209Z" fill="#A594F9"/>
</svg>
