<svg width="898" height="180" viewBox="0 0 898 180" fill="none" xmlns="http://www.w3.org/2000/svg">
<g clip-path="url(#clip0_402_957)">
<rect width="898" height="180" fill="white"/>
<path d="M222.525 87.83V87.17L221.7 87.94V50.21C221.7 48.23 221.242 46.7083 220.325 45.645C219.445 44.545 218.253 43.995 216.75 43.995C214.953 43.995 213.597 44.4717 212.68 45.425C211.763 46.3783 211.305 47.5333 211.305 48.89V54.06C211.305 56.2233 210.498 58.075 208.885 59.615C207.308 61.155 205.255 61.925 202.725 61.925C200.965 61.925 199.517 61.43 198.38 60.44C197.28 59.4133 196.73 57.8733 196.73 55.82C196.73 53.84 197.555 51.86 199.205 49.88C200.855 47.9 203.312 46.2683 206.575 44.985C209.875 43.665 213.945 43.005 218.785 43.005C225.348 43.005 230.243 44.325 233.47 46.965C236.733 49.5683 238.365 53.3083 238.365 58.185V86.015C238.365 87.0783 238.567 87.8667 238.97 88.38C239.41 88.8933 239.923 89.15 240.51 89.15C241.133 89.15 241.702 88.9483 242.215 88.545C242.728 88.105 243.058 87.39 243.205 86.4C243.242 86.2167 243.278 86.1067 243.315 86.07C243.388 85.9967 243.462 85.96 243.535 85.96C243.645 85.96 243.718 85.9967 243.755 86.07C243.828 86.1433 243.865 86.2533 243.865 86.4C243.865 87.17 243.48 88.16 242.71 89.37C241.977 90.58 240.748 91.6617 239.025 92.615C237.302 93.5683 234.992 94.045 232.095 94.045C228.685 94.045 226.228 93.4583 224.725 92.285C223.258 91.075 222.525 89.59 222.525 87.83ZM193.815 82.11C193.815 77.8933 195.575 74.5567 199.095 72.1C202.615 69.6067 208.335 68.36 216.255 68.36C218.198 68.36 219.775 68.5617 220.985 68.965C222.195 69.3317 223.313 69.845 224.34 70.505L223.845 71C222.782 70.45 221.737 70.0467 220.71 69.79C219.683 69.5333 218.51 69.405 217.19 69.405C214.99 69.405 213.285 70.285 212.075 72.045C210.865 73.805 210.26 76.39 210.26 79.8C210.26 83.0267 210.865 85.4283 212.075 87.005C213.285 88.5817 214.843 89.37 216.75 89.37C217.923 89.37 219.097 89.04 220.27 88.38C221.48 87.6833 222.47 86.7667 223.24 85.63L223.9 86.125C222.36 88.6917 220.178 90.6533 217.355 92.01C214.532 93.3667 211.47 94.045 208.17 94.045C203.99 94.045 200.543 92.9267 197.83 90.69C195.153 88.4533 193.815 85.5933 193.815 82.11ZM268.777 43.83V89.645C268.777 90.1217 268.905 90.5433 269.162 90.91C269.418 91.2767 269.767 91.515 270.207 91.625L272.737 92.065C273.103 92.1383 273.287 92.3033 273.287 92.56C273.287 92.8533 273.067 93 272.627 93H248.262C248.078 93 247.932 92.9633 247.822 92.89C247.712 92.78 247.657 92.67 247.657 92.56C247.657 92.45 247.712 92.34 247.822 92.23C247.968 92.12 248.152 92.0467 248.372 92.01L250.847 91.515C251.36 91.405 251.708 91.2033 251.892 90.91C252.075 90.6167 252.167 90.25 252.167 89.81V50.375C252.167 50.045 252.112 49.7883 252.002 49.605C251.892 49.4217 251.69 49.33 251.397 49.33H248.317C248.17 49.33 248.042 49.2933 247.932 49.22C247.858 49.11 247.822 49 247.822 48.89C247.822 48.7433 247.858 48.6333 247.932 48.56C248.042 48.45 248.207 48.3583 248.427 48.285L266.632 43.17C266.962 43.06 267.218 43.005 267.402 43.005C267.622 42.9683 267.823 42.95 268.007 42.95C268.3 42.95 268.502 43.0417 268.612 43.225C268.722 43.4083 268.777 43.61 268.777 43.83ZM267.457 55.49L266.742 54.885L268.722 52.96C272.608 49.33 276.183 46.7633 279.447 45.26C282.71 43.7567 285.662 43.005 288.302 43.005C291.822 43.005 294.682 44.0867 296.882 46.25C299.118 48.4133 300.237 51.8417 300.237 56.535V89.975C300.237 90.4883 300.328 90.8733 300.512 91.13C300.732 91.3867 301.043 91.5517 301.447 91.625L303.207 92.01C303.61 92.12 303.812 92.3033 303.812 92.56C303.812 92.8533 303.537 93 302.987 93H280.107C279.74 93 279.557 92.8533 279.557 92.56C279.557 92.3033 279.758 92.1383 280.162 92.065L282.197 91.68C282.857 91.4967 283.297 91.185 283.517 90.745C283.737 90.2683 283.847 89.7 283.847 89.04V58.405C283.847 55.875 283.223 53.9133 281.977 52.52C280.73 51.09 279.135 50.375 277.192 50.375C275.688 50.375 274.313 50.65 273.067 51.2C271.82 51.7133 270.592 52.5567 269.382 53.73L267.457 55.49ZM298.807 55.49L298.092 54.885L299.852 52.74C302.528 49.44 305.242 47.0017 307.992 45.425C310.778 43.8117 313.638 43.005 316.572 43.005C319.945 43.005 322.768 44.0867 325.042 46.25C327.352 48.4133 328.782 51.8783 329.332 56.645L333.237 89.81C333.31 90.3967 333.457 90.8367 333.677 91.13C333.897 91.4233 334.208 91.625 334.612 91.735L336.317 92.065C336.5 92.1017 336.628 92.175 336.702 92.285C336.812 92.3583 336.867 92.45 336.867 92.56C336.867 92.7067 336.812 92.8167 336.702 92.89C336.592 92.9633 336.445 93 336.262 93H312.337C311.97 93 311.787 92.8533 311.787 92.56C311.787 92.3033 311.988 92.1383 312.392 92.065L314.427 91.68C315.087 91.5333 315.545 91.2217 315.802 90.745C316.058 90.2317 316.15 89.6083 316.077 88.875L312.997 58.405C312.703 55.875 312.007 53.9133 310.907 52.52C309.843 51.09 308.34 50.375 306.397 50.375C305.297 50.375 304.252 50.65 303.262 51.2C302.308 51.7133 301.373 52.465 300.457 53.455L298.807 55.49ZM366.53 43.005C371.59 43.005 376.064 44.105 379.95 46.305C383.837 48.4683 386.88 51.4933 389.08 55.38C391.317 59.2667 392.435 63.7217 392.435 68.745C392.435 73.7317 391.28 78.1317 388.97 81.945C386.697 85.7217 383.544 88.6917 379.51 90.855C375.514 93.0183 370.93 94.1 365.76 94.1C360.7 94.1 356.227 93.0367 352.34 90.91C348.454 88.7467 345.41 85.7767 343.21 82C341.01 78.1867 339.91 73.7683 339.91 68.745C339.91 63.795 341.047 59.395 343.32 55.545C345.63 51.6583 348.784 48.5967 352.78 46.36C356.777 44.1233 361.36 43.005 366.53 43.005ZM369.445 92.945C371.242 92.7617 372.654 91.7167 373.68 89.81C374.744 87.8667 375.385 85.0433 375.605 81.34C375.862 77.6367 375.624 73.0533 374.89 67.59C374.157 62.1267 373.204 57.635 372.03 54.115C370.894 50.5583 369.555 47.9733 368.015 46.36C366.512 44.7467 364.825 44.05 362.955 44.27C361.159 44.49 359.729 45.5717 358.665 47.515C357.639 49.4583 357.034 52.2633 356.85 55.93C356.667 59.5967 356.924 64.1617 357.62 69.625C358.354 75.0517 359.289 79.525 360.425 83.045C361.562 86.565 362.9 89.15 364.44 90.8C365.98 92.45 367.649 93.165 369.445 92.945ZM417.537 64.4C417.537 59.7067 418.252 55.7833 419.682 52.63C421.112 49.44 422.945 47.0383 425.182 45.425C427.419 43.8117 429.747 43.005 432.167 43.005C435.027 43.005 437.227 43.94 438.767 45.81C440.307 47.6433 441.077 50.375 441.077 54.005C441.077 57.3417 440.289 59.835 438.712 61.485C437.135 63.0983 435.155 63.905 432.772 63.905C430.572 63.905 428.959 63.3 427.932 62.09C426.905 60.88 426.337 59.12 426.227 56.81L426.117 54.885C426.117 53.9317 425.915 53.18 425.512 52.63C425.145 52.08 424.504 51.805 423.587 51.805C422.67 51.805 421.809 52.2633 421.002 53.18C420.195 54.0967 419.554 55.5267 419.077 57.47C418.6 59.3767 418.362 61.815 418.362 64.785L417.537 64.4ZM418.307 44.27L418.362 61.705V89.095C418.362 89.5717 418.49 89.9933 418.747 90.36C419.004 90.7267 419.352 90.965 419.792 91.075L425.182 92.065C425.402 92.1017 425.549 92.1567 425.622 92.23C425.732 92.3033 425.787 92.4133 425.787 92.56C425.787 92.7067 425.732 92.8167 425.622 92.89C425.512 92.9633 425.347 93 425.127 93H397.902C397.682 93 397.499 92.9633 397.352 92.89C397.242 92.78 397.187 92.6517 397.187 92.505C397.187 92.395 397.26 92.285 397.407 92.175C397.554 92.065 397.737 91.9917 397.957 91.955L400.432 91.515C400.945 91.405 401.294 91.2033 401.477 90.91C401.66 90.6167 401.752 90.25 401.752 89.81V49.935C401.752 49.6417 401.697 49.4033 401.587 49.22C401.477 49 401.257 48.89 400.927 48.89H397.902C397.755 48.89 397.627 48.8533 397.517 48.78C397.407 48.67 397.352 48.56 397.352 48.45C397.352 48.34 397.407 48.23 397.517 48.12C397.627 48.01 397.792 47.9367 398.012 47.9L416.162 43.61C416.529 43.5367 416.804 43.4817 416.987 43.445C417.17 43.4083 417.372 43.39 417.592 43.39C417.849 43.39 418.032 43.4817 418.142 43.665C418.252 43.8483 418.307 44.05 418.307 44.27ZM465.761 43.775V89.535C465.761 90.085 465.852 90.525 466.036 90.855C466.256 91.185 466.604 91.405 467.081 91.515L469.611 92.01C469.867 92.0467 470.032 92.12 470.106 92.23C470.216 92.3033 470.271 92.4133 470.271 92.56C470.271 92.7067 470.216 92.8167 470.106 92.89C470.032 92.9633 469.904 93 469.721 93H445.191C445.044 93 444.916 92.9633 444.806 92.89C444.696 92.8167 444.641 92.7067 444.641 92.56C444.641 92.45 444.677 92.3583 444.751 92.285C444.861 92.175 445.026 92.1017 445.246 92.065L447.831 91.515C448.344 91.405 448.692 91.185 448.876 90.855C449.059 90.525 449.151 90.1033 449.151 89.59V50.155C449.151 49.8983 449.077 49.6967 448.931 49.55C448.821 49.4033 448.619 49.33 448.326 49.33H445.466C445.246 49.33 445.081 49.2933 444.971 49.22C444.897 49.11 444.861 48.9817 444.861 48.835C444.861 48.6883 444.916 48.5783 445.026 48.505C445.136 48.4317 445.264 48.3583 445.411 48.285L463.561 43.225C463.964 43.115 464.257 43.0417 464.441 43.005C464.624 42.9683 464.807 42.95 464.991 42.95C465.247 42.95 465.431 43.0233 465.541 43.17C465.687 43.3167 465.761 43.5183 465.761 43.775ZM457.181 37.89C454.357 37.89 452.047 36.9733 450.251 35.14C448.491 33.3067 447.611 31.07 447.611 28.43C447.611 25.7533 448.491 23.5167 450.251 21.72C452.047 19.8867 454.357 18.97 457.181 18.97C460.077 18.97 462.424 19.8867 464.221 21.72C466.054 23.5167 466.971 25.7533 466.971 28.43C466.971 31.07 466.054 33.3067 464.221 35.14C462.424 36.9733 460.077 37.89 457.181 37.89ZM560.143 68.91C559.849 72.5033 558.896 75.8767 557.283 79.03C555.669 82.1467 553.506 84.8783 550.793 87.225C548.116 89.5717 544.981 91.405 541.388 92.725C537.794 94.0083 533.871 94.65 529.618 94.65C522.138 94.65 515.684 93.0367 510.258 89.81C504.831 86.5467 500.633 82 497.663 76.17C494.729 70.3033 493.263 63.4833 493.263 55.71C493.263 49.6233 494.161 44.0683 495.958 39.045C497.791 34.0217 500.376 29.695 503.713 26.065C507.049 22.3983 511.028 19.575 515.648 17.595C520.268 15.5783 525.383 14.57 530.993 14.57C534.366 14.57 537.226 14.9367 539.573 15.67C541.919 16.3667 543.753 17.0817 545.073 17.815C546.393 18.5483 547.218 18.915 547.548 18.915C548.061 18.915 548.813 18.5667 549.803 17.87C550.793 17.1367 551.746 16.4217 552.663 15.725C553.616 14.9917 554.221 14.625 554.478 14.625C554.661 14.625 554.826 14.6983 554.973 14.845C555.119 14.9917 555.229 15.2483 555.303 15.615L560.418 38.44C560.491 38.77 560.491 39.045 560.418 39.265C560.381 39.485 560.216 39.6133 559.923 39.65C559.666 39.7233 559.446 39.6867 559.263 39.54C559.079 39.3933 558.896 39.1183 558.713 38.715C556.623 33.2517 554.313 28.9067 551.783 25.68C549.253 22.4533 546.594 20.1433 543.808 18.75C541.021 17.32 538.198 16.605 535.338 16.605C532.404 16.605 529.673 17.32 527.143 18.75C524.613 20.1433 522.376 22.2333 520.433 25.02C518.526 27.8067 517.041 31.235 515.978 35.305C514.914 39.3383 514.383 44.0133 514.383 49.33C514.383 57.7633 515.428 64.7667 517.518 70.34C519.608 75.8767 522.504 80.02 526.208 82.77C529.948 85.4833 534.238 86.84 539.078 86.84C544.101 86.84 548.409 85.3 552.003 82.22C555.633 79.14 558.034 74.6483 559.208 68.745C559.281 68.4883 559.354 68.305 559.428 68.195C559.501 68.085 559.611 68.0483 559.758 68.085C559.904 68.085 560.014 68.1767 560.088 68.36C560.161 68.5067 560.179 68.69 560.143 68.91ZM592.138 43.005C597.198 43.005 601.671 44.105 605.558 46.305C609.445 48.4683 612.488 51.4933 614.688 55.38C616.925 59.2667 618.043 63.7217 618.043 68.745C618.043 73.7317 616.888 78.1317 614.578 81.945C612.305 85.7217 609.151 88.6917 605.118 90.855C601.121 93.0183 596.538 94.1 591.368 94.1C586.308 94.1 581.835 93.0367 577.948 90.91C574.061 88.7467 571.018 85.7767 568.818 82C566.618 78.1867 565.518 73.7683 565.518 68.745C565.518 63.795 566.655 59.395 568.928 55.545C571.238 51.6583 574.391 48.5967 578.388 46.36C582.385 44.1233 586.968 43.005 592.138 43.005ZM595.053 92.945C596.85 92.7617 598.261 91.7167 599.288 89.81C600.351 87.8667 600.993 85.0433 601.213 81.34C601.47 77.6367 601.231 73.0533 600.498 67.59C599.765 62.1267 598.811 57.635 597.638 54.115C596.501 50.5583 595.163 47.9733 593.623 46.36C592.12 44.7467 590.433 44.05 588.563 44.27C586.766 44.49 585.336 45.5717 584.273 47.515C583.246 49.4583 582.641 52.2633 582.458 55.93C582.275 59.5967 582.531 64.1617 583.228 69.625C583.961 75.0517 584.896 79.525 586.033 83.045C587.17 86.565 588.508 89.15 590.048 90.8C591.588 92.45 593.256 93.165 595.053 92.945ZM643.859 43.775V89.535C643.859 90.085 643.969 90.525 644.189 90.855C644.409 91.185 644.739 91.405 645.179 91.515L647.709 92.01C648.149 92.12 648.369 92.3033 648.369 92.56C648.369 92.8533 648.168 93 647.764 93H623.289C623.143 93 623.014 92.9633 622.904 92.89C622.794 92.8167 622.739 92.7067 622.739 92.56C622.739 92.45 622.776 92.3583 622.849 92.285C622.959 92.175 623.124 92.1017 623.344 92.065L625.929 91.515C626.443 91.405 626.791 91.185 626.974 90.855C627.158 90.525 627.249 90.1033 627.249 89.59V50.155C627.249 49.8983 627.176 49.6967 627.029 49.55C626.919 49.4033 626.718 49.33 626.424 49.33H623.564C623.344 49.33 623.179 49.2933 623.069 49.22C622.996 49.11 622.959 48.9817 622.959 48.835C622.959 48.6883 623.014 48.5783 623.124 48.505C623.234 48.4317 623.363 48.3583 623.509 48.285L641.659 43.225C642.063 43.115 642.356 43.0417 642.539 43.005C642.723 42.9683 642.906 42.95 643.089 42.95C643.346 42.95 643.529 43.0233 643.639 43.17C643.786 43.3167 643.859 43.5183 643.859 43.775ZM642.484 55.49L641.769 54.72L643.859 52.85C647.636 49.5133 650.954 47.0383 653.814 45.425C656.674 43.8117 659.296 43.005 661.679 43.005C665.016 43.005 667.601 44.0133 669.434 46.03C671.304 48.0467 672.496 51.2183 673.009 55.545L676.914 89.37C676.988 89.9933 677.116 90.4883 677.299 90.855C677.519 91.2217 677.886 91.46 678.399 91.57L680.764 92.065C681.021 92.1017 681.186 92.175 681.259 92.285C681.369 92.3583 681.424 92.45 681.424 92.56C681.424 92.7067 681.369 92.8167 681.259 92.89C681.186 92.9633 681.039 93 680.819 93H655.904C655.501 93 655.299 92.8533 655.299 92.56C655.299 92.3033 655.519 92.12 655.959 92.01L658.489 91.515C659.076 91.405 659.479 91.1667 659.699 90.8C659.919 90.4333 659.993 89.9567 659.919 89.37L656.674 57.25C656.418 54.8667 655.886 53.125 655.079 52.025C654.273 50.925 653.026 50.375 651.339 50.375C650.203 50.375 649.066 50.6683 647.929 51.255C646.829 51.805 645.693 52.63 644.519 53.73L642.484 55.49ZM704.793 43.775V89.535C704.793 90.085 704.903 90.525 705.123 90.855C705.343 91.185 705.673 91.405 706.113 91.515L708.643 92.01C709.083 92.12 709.303 92.3033 709.303 92.56C709.303 92.8533 709.102 93 708.698 93H684.223C684.077 93 683.948 92.9633 683.838 92.89C683.728 92.8167 683.673 92.7067 683.673 92.56C683.673 92.45 683.71 92.3583 683.783 92.285C683.893 92.175 684.058 92.1017 684.278 92.065L686.863 91.515C687.377 91.405 687.725 91.185 687.908 90.855C688.092 90.525 688.183 90.1033 688.183 89.59V50.155C688.183 49.8983 688.11 49.6967 687.963 49.55C687.853 49.4033 687.652 49.33 687.358 49.33H684.498C684.278 49.33 684.113 49.2933 684.003 49.22C683.93 49.11 683.893 48.9817 683.893 48.835C683.893 48.6883 683.948 48.5783 684.058 48.505C684.168 48.4317 684.297 48.3583 684.443 48.285L702.593 43.225C702.997 43.115 703.29 43.0417 703.473 43.005C703.657 42.9683 703.84 42.95 704.023 42.95C704.28 42.95 704.463 43.0233 704.573 43.17C704.72 43.3167 704.793 43.5183 704.793 43.775ZM703.418 55.49L702.703 54.72L704.793 52.85C708.57 49.5133 711.888 47.0383 714.748 45.425C717.608 43.8117 720.23 43.005 722.613 43.005C725.95 43.005 728.535 44.0133 730.368 46.03C732.238 48.0467 733.43 51.2183 733.943 55.545L737.848 89.37C737.922 89.9933 738.05 90.4883 738.233 90.855C738.453 91.2217 738.82 91.46 739.333 91.57L741.698 92.065C741.955 92.1017 742.12 92.175 742.193 92.285C742.303 92.3583 742.358 92.45 742.358 92.56C742.358 92.7067 742.303 92.8167 742.193 92.89C742.12 92.9633 741.973 93 741.753 93H716.838C716.435 93 716.233 92.8533 716.233 92.56C716.233 92.3033 716.453 92.12 716.893 92.01L719.423 91.515C720.01 91.405 720.413 91.1667 720.633 90.8C720.853 90.4333 720.927 89.9567 720.853 89.37L717.608 57.25C717.352 54.8667 716.82 53.125 716.013 52.025C715.207 50.925 713.96 50.375 712.273 50.375C711.137 50.375 710 50.6683 708.863 51.255C707.763 51.805 706.627 52.63 705.453 53.73L703.418 55.49ZM791.742 65.005C791.742 65.4083 791.614 65.7383 791.357 65.995C791.101 66.2517 790.716 66.38 790.202 66.38H755.937V65.115H774.252C774.912 65.115 775.242 64.73 775.242 63.96C775.242 57.0667 774.472 52.0617 772.932 48.945C771.392 45.7917 769.651 44.215 767.707 44.215C766.167 44.215 764.811 44.8383 763.637 46.085C762.464 47.295 761.529 49.2567 760.832 51.97C760.172 54.6833 759.842 58.2767 759.842 62.75C759.842 70.3033 761.382 75.895 764.462 79.525C767.579 83.1183 771.686 84.915 776.782 84.915C780.669 84.915 783.896 83.8883 786.462 81.835C789.066 79.7817 790.459 77.0317 790.642 73.585C790.679 73.4017 790.734 73.2917 790.807 73.255C790.917 73.1817 790.991 73.145 791.027 73.145C791.137 73.145 791.229 73.1817 791.302 73.255C791.412 73.3283 791.467 73.4933 791.467 73.75C791.357 77.6 790.294 81.065 788.277 84.145C786.297 87.225 783.621 89.6633 780.247 91.46C776.874 93.22 773.061 94.1 768.807 94.1C764.041 94.1 759.824 93.0733 756.157 91.02C752.491 88.93 749.612 86.0333 747.522 82.33C745.469 78.59 744.442 74.2817 744.442 69.405C744.442 64.015 745.469 59.3583 747.522 55.435C749.612 51.475 752.546 48.4133 756.322 46.25C760.136 44.0867 764.609 43.005 769.742 43.005C774.216 43.005 778.102 43.9583 781.402 45.865C784.702 47.7717 787.251 50.3933 789.047 53.73C790.844 57.03 791.742 60.7883 791.742 65.005ZM841.348 56.81C841.348 59.1567 840.67 61.045 839.313 62.475C837.993 63.8683 836.141 64.565 833.758 64.565C831.338 64.565 829.431 63.8317 828.038 62.365C826.645 60.8983 825.948 58.79 825.948 56.04V51.365C825.948 49.0917 825.453 47.35 824.463 46.14C823.51 44.8933 822.19 44.27 820.503 44.27C818.78 44.27 817.258 44.985 815.938 46.415C814.655 47.8083 813.665 49.825 812.968 52.465C812.308 55.0683 811.978 58.2217 811.978 61.925C811.978 66.655 812.62 70.67 813.903 73.97C815.223 77.2333 817.038 79.7083 819.348 81.395C821.658 83.045 824.298 83.87 827.268 83.87C830.531 83.87 833.3 83.21 835.573 81.89C837.883 80.57 839.405 78.48 840.138 75.62C840.211 75.4367 840.285 75.3083 840.358 75.235C840.468 75.1617 840.578 75.1433 840.688 75.18C840.798 75.18 840.871 75.235 840.908 75.345C840.981 75.455 841 75.6017 840.963 75.785C840.303 79.635 838.983 82.9167 837.003 85.63C835.023 88.3433 832.511 90.4333 829.468 91.9C826.425 93.3667 822.923 94.1 818.963 94.1C814.6 94.1 810.695 93.1833 807.248 91.35C803.838 89.5167 801.143 86.8033 799.163 83.21C797.183 79.58 796.193 75.1067 796.193 69.79C796.193 64.62 797.275 60.0367 799.438 56.04C801.638 52.0067 804.645 48.835 808.458 46.525C812.308 44.1783 816.726 43.005 821.713 43.005C826.04 43.005 829.651 43.61 832.548 44.82C835.445 46.03 837.626 47.68 839.093 49.77C840.596 51.8233 841.348 54.17 841.348 56.81ZM849.153 46.195L844.808 45.15C844.551 45.0767 844.368 45.0033 844.258 44.93C844.185 44.82 844.148 44.71 844.148 44.6C844.148 44.4533 844.203 44.3433 844.313 44.27C844.423 44.16 844.533 44.105 844.643 44.105H849.208C849.391 44.105 849.556 44.0867 849.703 44.05C849.886 43.9767 850.07 43.8483 850.253 43.665L863.453 32.83C863.71 32.61 863.985 32.4267 864.278 32.28C864.571 32.1333 864.828 32.06 865.048 32.06C865.305 32.06 865.506 32.1517 865.653 32.335C865.836 32.5183 865.928 32.7933 865.928 33.16V78.59C865.928 81.7067 866.496 84.0167 867.633 85.52C868.77 87.0233 870.31 87.775 872.253 87.775C872.95 87.775 873.61 87.665 874.233 87.445C874.856 87.225 875.425 86.8767 875.938 86.4C876.488 85.8867 876.965 85.2267 877.368 84.42C877.808 83.6133 878.156 82.6417 878.413 81.505C878.523 81.2483 878.67 81.1383 878.853 81.175C879.073 81.175 879.146 81.3217 879.073 81.615C878.523 84.4017 877.661 86.7117 876.488 88.545C875.351 90.3783 873.83 91.7533 871.923 92.67C870.053 93.5867 867.725 94.045 864.938 94.045C860.061 94.045 856.34 92.9267 853.773 90.69C851.206 88.4167 849.923 84.915 849.923 80.185V47.24C849.923 46.91 849.868 46.6717 849.758 46.525C849.685 46.3417 849.483 46.2317 849.153 46.195ZM860.978 45.535L861.473 44.105H878.688C878.871 44.105 879.018 44.1417 879.128 44.215C879.238 44.2883 879.293 44.4167 879.293 44.6C879.293 44.8567 879.146 45.0767 878.853 45.26C878.56 45.4433 878.156 45.535 877.643 45.535H860.978Z" fill="#333333"/>
<path d="M204.216 164.184V125.936C204.216 125.712 204.328 125.6 204.552 125.6H207.52C207.744 125.6 207.856 125.712 207.856 125.936V161.328H217.208C221.352 161.328 224.357 160.973 226.224 160.264C226.448 160.227 226.579 160.301 226.616 160.488L227.176 163.008C227.251 163.195 227.176 163.325 226.952 163.4C225.907 163.848 224.544 164.147 222.864 164.296C221.184 164.445 219.299 164.52 217.208 164.52H204.552C204.328 164.52 204.216 164.408 204.216 164.184ZM242.591 165.36C238.821 165.36 235.815 164.128 233.575 161.664C231.373 159.2 230.271 155.877 230.271 151.696C230.271 147.477 231.373 144.136 233.575 141.672C235.815 139.171 238.821 137.92 242.591 137.92C246.362 137.92 249.349 139.171 251.551 141.672C253.791 144.136 254.911 147.477 254.911 151.696C254.911 155.877 253.791 159.2 251.551 161.664C249.349 164.128 246.362 165.36 242.591 165.36ZM242.591 162.28C245.354 162.28 247.501 161.347 249.031 159.48C250.599 157.576 251.383 154.963 251.383 151.64C251.383 148.28 250.599 145.667 249.031 143.8C247.501 141.896 245.354 140.944 242.591 140.944C239.829 140.944 237.663 141.896 236.095 143.8C234.565 145.667 233.799 148.28 233.799 151.64C233.799 154.963 234.565 157.576 236.095 159.48C237.663 161.347 239.829 162.28 242.591 162.28ZM281.696 160.544C281.771 160.656 281.771 160.787 281.696 160.936C280.501 162.429 279.064 163.549 277.384 164.296C275.704 165.005 273.837 165.36 271.784 165.36C268.013 165.36 265.083 164.128 262.992 161.664C260.939 159.2 259.912 155.859 259.912 151.64C259.912 147.421 260.976 144.08 263.104 141.616C265.232 139.152 268.237 137.92 272.12 137.92C273.763 137.92 275.293 138.2 276.712 138.76C278.131 139.283 279.344 139.992 280.352 140.888C280.539 141 280.557 141.131 280.408 141.28L278.84 143.632C278.728 143.744 278.597 143.744 278.448 143.632C277.664 142.848 276.731 142.232 275.648 141.784C274.565 141.299 273.333 141.056 271.952 141.056C269.227 141.056 267.117 141.989 265.624 143.856C264.168 145.685 263.44 148.317 263.44 151.752C263.44 155.112 264.168 157.707 265.624 159.536C267.08 161.328 269.133 162.224 271.784 162.224C273.352 162.224 274.845 161.925 276.264 161.328C277.683 160.693 278.765 159.797 279.512 158.64C279.624 158.491 279.755 158.491 279.904 158.64L281.696 160.544ZM286.678 141.336C286.603 141.149 286.64 141 286.79 140.888C288.358 139.917 290.019 139.189 291.774 138.704C293.528 138.181 295.227 137.92 296.87 137.92C303.03 137.92 306.11 141 306.11 147.16V160.376C306.11 161.011 306.278 161.459 306.614 161.72C306.95 161.944 307.36 162.056 307.846 162.056C307.995 162.056 308.07 162.168 308.07 162.392L307.79 164.856C307.79 165.005 307.696 165.08 307.51 165.08C306.464 165.08 305.494 164.8 304.598 164.24C303.702 163.68 303.104 162.821 302.806 161.664C301.76 162.896 300.435 163.829 298.83 164.464C297.262 165.061 295.656 165.36 294.014 165.36C292.632 165.36 291.288 165.099 289.982 164.576C288.712 164.053 287.667 163.195 286.846 162C286.062 160.805 285.67 159.2 285.67 157.184C285.67 154.832 286.416 153.003 287.91 151.696C289.403 150.389 291.438 149.493 294.014 149.008C296.59 148.485 299.464 148.224 302.638 148.224V147.272C302.638 144.995 302.096 143.389 301.014 142.456C299.968 141.485 298.456 141 296.478 141C295.208 141 293.846 141.224 292.39 141.672C290.971 142.12 289.664 142.773 288.47 143.632C288.283 143.819 288.134 143.8 288.022 143.576L286.678 141.336ZM302.638 156.68V151.304C302.451 151.267 302.246 151.248 302.022 151.248C301.835 151.248 301.63 151.248 301.406 151.248C299.128 151.248 297.056 151.435 295.19 151.808C293.36 152.144 291.904 152.76 290.822 153.656C289.739 154.515 289.198 155.728 289.198 157.296C289.198 159.088 289.739 160.357 290.822 161.104C291.942 161.851 293.192 162.224 294.574 162.224C296.179 162.224 297.747 161.776 299.278 160.88C300.846 159.984 301.966 158.584 302.638 156.68ZM322.152 161.832C322.339 161.757 322.432 161.832 322.432 162.056L322.656 164.576C322.656 164.725 322.563 164.837 322.376 164.912C321.48 165.211 320.677 165.36 319.968 165.36C318.587 165.36 317.429 164.912 316.496 164.016C315.563 163.12 315.096 161.813 315.096 160.096V124.48C315.096 124.293 315.189 124.2 315.376 124.2H318.288C318.475 124.2 318.568 124.293 318.568 124.48V159.928C318.568 161.459 319.221 162.224 320.528 162.224C320.752 162.224 320.995 162.187 321.256 162.112C321.555 162.037 321.853 161.944 322.152 161.832ZM345.928 157.968C346.077 157.819 346.227 157.819 346.376 157.968C347.347 159.125 348.747 160.115 350.576 160.936C352.405 161.757 354.403 162.168 356.568 162.168C359.368 162.168 361.645 161.515 363.4 160.208C365.155 158.864 366.032 156.885 366.032 154.272C366.032 152.555 365.621 151.173 364.8 150.128C364.016 149.083 362.896 148.224 361.44 147.552C359.984 146.843 358.285 146.208 356.344 145.648C355.224 145.312 353.992 144.92 352.648 144.472C351.341 143.987 350.091 143.352 348.896 142.568C347.739 141.747 346.805 140.72 346.096 139.488C345.387 138.219 345.069 136.669 345.144 134.84C345.256 131.928 346.357 129.52 348.448 127.616C350.576 125.712 353.507 124.76 357.24 124.76C360.04 124.76 362.411 125.227 364.352 126.16C366.331 127.093 367.787 128.083 368.72 129.128C368.832 129.24 368.832 129.389 368.72 129.576L366.872 131.704C366.76 131.891 366.611 131.891 366.424 131.704C365.677 130.808 364.501 129.949 362.896 129.128C361.328 128.307 359.424 127.896 357.184 127.896C354.683 127.896 352.667 128.493 351.136 129.688C349.605 130.883 348.84 132.525 348.84 134.616C348.84 136.333 349.251 137.696 350.072 138.704C350.931 139.675 352.013 140.421 353.32 140.944C354.664 141.467 356.045 141.933 357.464 142.344C358.771 142.717 360.133 143.184 361.552 143.744C362.971 144.267 364.296 144.957 365.528 145.816C366.76 146.675 367.749 147.795 368.496 149.176C369.28 150.52 369.672 152.2 369.672 154.216C369.672 156.605 369.112 158.64 367.992 160.32C366.872 161.963 365.323 163.213 363.344 164.072C361.365 164.931 359.069 165.36 356.456 165.36C353.693 165.36 351.192 164.893 348.952 163.96C346.712 163.027 345.051 161.869 343.968 160.488C343.893 160.376 343.912 160.227 344.024 160.04L345.928 157.968ZM377.781 157.352V141.84H374.197C373.973 141.84 373.861 141.728 373.861 141.504V139.096C373.861 138.872 373.973 138.76 374.197 138.76H377.781V133.496C377.781 133.347 377.837 133.253 377.949 133.216L381.085 132.376C381.272 132.339 381.365 132.432 381.365 132.656V138.76H389.485C389.709 138.76 389.821 138.872 389.821 139.096V141.504C389.821 141.728 389.709 141.84 389.485 141.84H381.365L381.421 157.464C381.421 159.368 381.832 160.637 382.653 161.272C383.512 161.869 384.52 162.168 385.677 162.168C386.312 162.168 387.077 162.056 387.973 161.832C388.906 161.608 389.672 161.328 390.269 160.992C390.493 160.88 390.642 160.936 390.717 161.16L391.501 163.568C391.576 163.755 391.52 163.885 391.333 163.96C390.288 164.445 389.168 164.8 387.973 165.024C386.816 165.248 385.77 165.36 384.837 165.36C382.821 165.36 381.141 164.725 379.797 163.456C378.453 162.187 377.781 160.152 377.781 157.352ZM406.599 165.36C402.828 165.36 399.823 164.128 397.583 161.664C395.38 159.2 394.279 155.877 394.279 151.696C394.279 147.477 395.38 144.136 397.583 141.672C399.823 139.171 402.828 137.92 406.599 137.92C410.37 137.92 413.356 139.171 415.559 141.672C417.799 144.136 418.919 147.477 418.919 151.696C418.919 155.877 417.799 159.2 415.559 161.664C413.356 164.128 410.37 165.36 406.599 165.36ZM406.599 162.28C409.362 162.28 411.508 161.347 413.039 159.48C414.607 157.576 415.391 154.963 415.391 151.64C415.391 148.28 414.607 145.667 413.039 143.8C411.508 141.896 409.362 140.944 406.599 140.944C403.836 140.944 401.671 141.896 400.103 143.8C398.572 145.667 397.807 148.28 397.807 151.64C397.807 154.963 398.572 157.576 400.103 159.48C401.671 161.347 403.836 162.28 406.599 162.28ZM429.365 164.24C429.365 164.427 429.271 164.52 429.085 164.52H426.173C425.986 164.52 425.893 164.427 425.893 164.24V139.04C425.893 138.853 425.986 138.76 426.173 138.76H428.525C428.711 138.76 428.805 138.853 428.805 139.04L429.253 142.288C430.223 140.869 431.418 139.805 432.837 139.096C434.293 138.349 435.674 137.976 436.981 137.976C437.503 137.976 438.045 138.032 438.605 138.144C439.165 138.256 439.631 138.461 440.005 138.76C440.154 138.835 440.191 138.947 440.117 139.096L438.997 141.84C438.922 142.027 438.791 142.083 438.605 142.008C437.597 141.56 436.663 141.336 435.805 141.336C434.162 141.336 432.762 141.971 431.605 143.24C430.485 144.472 429.738 146.059 429.365 148V164.24ZM448.887 164.24C448.887 164.427 448.794 164.52 448.607 164.52H445.695C445.508 164.52 445.415 164.427 445.415 164.24V139.04C445.415 138.853 445.508 138.76 445.695 138.76H448.607C448.794 138.76 448.887 138.853 448.887 139.04V164.24ZM447.207 132.32C446.311 132.32 445.564 132.04 444.967 131.48C444.37 130.92 444.071 130.248 444.071 129.464C444.071 128.605 444.37 127.896 444.967 127.336C445.564 126.739 446.311 126.44 447.207 126.44C448.066 126.44 448.775 126.739 449.335 127.336C449.932 127.896 450.231 128.605 450.231 129.464C450.231 130.248 449.932 130.92 449.335 131.48C448.775 132.04 448.066 132.32 447.207 132.32ZM459.385 151.752C459.385 154.925 460.057 157.427 461.401 159.256C462.783 161.048 464.873 162.019 467.673 162.168C469.54 162.243 471.108 161.963 472.377 161.328C473.647 160.656 474.692 159.984 475.513 159.312C475.663 159.2 475.793 159.219 475.905 159.368L477.305 161.608C477.38 161.72 477.361 161.832 477.249 161.944C475.943 163.176 474.468 164.072 472.825 164.632C471.22 165.155 469.503 165.397 467.673 165.36C464.052 165.285 461.177 164.091 459.049 161.776C456.921 159.424 455.857 156.101 455.857 151.808C455.857 149.045 456.343 146.619 457.313 144.528C458.284 142.437 459.628 140.813 461.345 139.656C463.1 138.499 465.153 137.92 467.505 137.92C470.641 137.92 473.124 138.965 474.953 141.056C476.783 143.109 477.697 145.928 477.697 149.512C477.697 149.699 477.697 149.904 477.697 150.128C477.697 150.315 477.679 150.613 477.641 151.024C477.567 151.397 477.38 151.584 477.081 151.584L459.385 151.696C459.385 151.696 459.385 151.715 459.385 151.752ZM459.609 148.728L474.001 148.672C474.188 146.357 473.647 144.509 472.377 143.128C471.145 141.709 469.465 141 467.337 141C465.284 141 463.585 141.672 462.241 143.016C460.897 144.36 460.02 146.264 459.609 148.728ZM499.298 143.856C499.111 143.968 498.962 143.968 498.85 143.856C498.365 143.109 497.543 142.456 496.386 141.896C495.266 141.299 493.941 141 492.41 141C491.402 141 490.431 141.131 489.498 141.392C488.565 141.653 487.799 142.083 487.202 142.68C486.605 143.277 486.306 144.061 486.306 145.032C486.306 146.189 486.829 147.104 487.874 147.776C488.919 148.448 490.749 149.064 493.362 149.624C495.826 150.147 497.842 151.024 499.41 152.256C500.978 153.488 501.762 155.187 501.762 157.352C501.762 159.181 501.277 160.693 500.306 161.888C499.373 163.045 498.141 163.923 496.61 164.52C495.117 165.08 493.549 165.36 491.906 165.36C489.591 165.36 487.482 164.893 485.578 163.96C483.674 163.027 482.349 161.627 481.602 159.76C481.527 159.573 481.583 159.424 481.77 159.312L484.066 158.08C484.141 158.043 484.234 158.024 484.346 158.024C484.458 158.024 484.533 158.099 484.57 158.248C485.167 159.555 486.138 160.563 487.482 161.272C488.863 161.944 490.319 162.28 491.85 162.28C493.605 162.28 495.098 161.925 496.33 161.216C497.599 160.469 498.234 159.293 498.234 157.688C498.234 155.933 497.599 154.72 496.33 154.048C495.061 153.339 493.418 152.797 491.402 152.424C488.826 151.939 486.735 151.117 485.13 149.96C483.562 148.803 482.778 147.16 482.778 145.032C482.778 143.352 483.245 141.989 484.178 140.944C485.111 139.899 486.306 139.133 487.762 138.648C489.255 138.163 490.786 137.92 492.354 137.92C494.407 137.92 496.162 138.256 497.618 138.928C499.111 139.6 500.306 140.496 501.202 141.616C501.314 141.765 501.295 141.933 501.146 142.12L499.298 143.856ZM533.976 147.72C533.08 147.72 532.334 147.421 531.736 146.824C531.139 146.227 530.84 145.48 530.84 144.584C530.84 143.725 531.139 143.016 531.736 142.456C532.334 141.859 533.08 141.56 533.976 141.56C534.835 141.56 535.544 141.859 536.104 142.456C536.702 143.016 537 143.725 537 144.584C537 145.48 536.702 146.227 536.104 146.824C535.544 147.421 534.835 147.72 533.976 147.72ZM569.747 164.184V125.936C569.747 125.712 569.859 125.6 570.083 125.6H578.875C585.857 125.6 591.121 127.28 594.667 130.64C598.214 133.963 599.987 138.667 599.987 144.752C599.987 148.933 599.11 152.499 597.355 155.448C595.638 158.397 593.23 160.656 590.131 162.224C587.033 163.755 583.43 164.52 579.323 164.52H570.083C569.859 164.52 569.747 164.408 569.747 164.184ZM573.387 161.328H579.323C582.721 161.328 585.689 160.731 588.227 159.536C590.766 158.304 592.745 156.456 594.163 153.992C595.619 151.528 596.347 148.467 596.347 144.808C596.347 139.581 594.947 135.605 592.147 132.88C589.347 130.117 584.923 128.736 578.875 128.736H573.387V161.328ZM605.779 141.336C605.705 141.149 605.742 141 605.891 140.888C607.459 139.917 609.121 139.189 610.875 138.704C612.63 138.181 614.329 137.92 615.971 137.92C622.131 137.92 625.211 141 625.211 147.16V160.376C625.211 161.011 625.379 161.459 625.715 161.72C626.051 161.944 626.462 162.056 626.947 162.056C627.097 162.056 627.171 162.168 627.171 162.392L626.891 164.856C626.891 165.005 626.798 165.08 626.611 165.08C625.566 165.08 624.595 164.8 623.699 164.24C622.803 163.68 622.206 162.821 621.907 161.664C620.862 162.896 619.537 163.829 617.931 164.464C616.363 165.061 614.758 165.36 613.115 165.36C611.734 165.36 610.39 165.099 609.083 164.576C607.814 164.053 606.769 163.195 605.947 162C605.163 160.805 604.771 159.2 604.771 157.184C604.771 154.832 605.518 153.003 607.011 151.696C608.505 150.389 610.539 149.493 613.115 149.008C615.691 148.485 618.566 148.224 621.739 148.224V147.272C621.739 144.995 621.198 143.389 620.115 142.456C619.07 141.485 617.558 141 615.579 141C614.31 141 612.947 141.224 611.491 141.672C610.073 142.12 608.766 142.773 607.571 143.632C607.385 143.819 607.235 143.8 607.123 143.576L605.779 141.336ZM621.739 156.68V151.304C621.553 151.267 621.347 151.248 621.123 151.248C620.937 151.248 620.731 151.248 620.507 151.248C618.23 151.248 616.158 151.435 614.291 151.808C612.462 152.144 611.006 152.76 609.923 153.656C608.841 154.515 608.299 155.728 608.299 157.296C608.299 159.088 608.841 160.357 609.923 161.104C611.043 161.851 612.294 162.224 613.675 162.224C615.281 162.224 616.849 161.776 618.379 160.88C619.947 159.984 621.067 158.584 621.739 156.68ZM635.206 151.752C635.206 154.925 635.878 157.427 637.222 159.256C638.603 161.048 640.694 162.019 643.494 162.168C645.36 162.243 646.928 161.963 648.198 161.328C649.467 160.656 650.512 159.984 651.334 159.312C651.483 159.2 651.614 159.219 651.726 159.368L653.126 161.608C653.2 161.72 653.182 161.832 653.07 161.944C651.763 163.176 650.288 164.072 648.646 164.632C647.04 165.155 645.323 165.397 643.494 165.36C639.872 165.285 636.998 164.091 634.87 161.776C632.742 159.424 631.678 156.101 631.678 151.808C631.678 149.045 632.163 146.619 633.133 144.528C634.104 142.437 635.448 140.813 637.166 139.656C638.92 138.499 640.974 137.92 643.326 137.92C646.462 137.92 648.944 138.965 650.774 141.056C652.603 143.109 653.518 145.928 653.518 149.512C653.518 149.699 653.518 149.904 653.518 150.128C653.518 150.315 653.499 150.613 653.462 151.024C653.387 151.397 653.2 151.584 652.902 151.584L635.206 151.696C635.206 151.696 635.206 151.715 635.206 151.752ZM635.43 148.728L649.822 148.672C650.008 146.357 649.467 144.509 648.198 143.128C646.966 141.709 645.286 141 643.158 141C641.104 141 639.406 141.672 638.062 143.016C636.718 144.36 635.84 146.264 635.43 148.728ZM653.782 172.192C653.745 171.968 653.82 171.856 654.006 171.856C654.902 171.856 655.705 171.707 656.414 171.408C657.161 171.147 657.833 170.792 658.43 170.344C659.364 169.635 660.054 168.664 660.502 167.432C660.988 166.2 661.23 164.613 661.23 162.672V139.04C661.23 138.853 661.324 138.76 661.51 138.76H664.422C664.609 138.76 664.702 138.853 664.702 139.04V162.392C664.702 164.781 664.385 166.872 663.75 168.664C663.116 170.419 662.108 171.819 660.726 172.864C659.98 173.461 659.102 173.928 658.094 174.264C657.086 174.6 655.948 174.805 654.678 174.88C654.492 174.88 654.38 174.805 654.342 174.656L653.782 172.192ZM662.798 132.32C661.902 132.32 661.156 132.04 660.558 131.48C659.961 130.92 659.662 130.248 659.662 129.464C659.662 128.605 659.961 127.896 660.558 127.336C661.156 126.739 661.902 126.44 662.798 126.44C663.657 126.44 664.366 126.739 664.926 127.336C665.524 127.896 665.822 128.605 665.822 129.464C665.822 130.248 665.524 130.92 664.926 131.48C664.366 132.04 663.657 132.32 662.798 132.32ZM674.963 151.752C674.963 154.925 675.635 157.427 676.979 159.256C678.361 161.048 680.451 162.019 683.251 162.168C685.118 162.243 686.686 161.963 687.955 161.328C689.225 160.656 690.27 159.984 691.091 159.312C691.241 159.2 691.371 159.219 691.483 159.368L692.883 161.608C692.958 161.72 692.939 161.832 692.827 161.944C691.521 163.176 690.046 164.072 688.403 164.632C686.798 165.155 685.081 165.397 683.251 165.36C679.63 165.285 676.755 164.091 674.627 161.776C672.499 159.424 671.435 156.101 671.435 151.808C671.435 149.045 671.921 146.619 672.891 144.528C673.862 142.437 675.206 140.813 676.923 139.656C678.678 138.499 680.731 137.92 683.083 137.92C686.219 137.92 688.702 138.965 690.531 141.056C692.361 143.109 693.275 145.928 693.275 149.512C693.275 149.699 693.275 149.904 693.275 150.128C693.275 150.315 693.257 150.613 693.219 151.024C693.145 151.397 692.958 151.584 692.659 151.584L674.963 151.696C674.963 151.696 674.963 151.715 674.963 151.752ZM675.187 148.728L689.579 148.672C689.766 146.357 689.225 144.509 687.955 143.128C686.723 141.709 685.043 141 682.915 141C680.862 141 679.163 141.672 677.819 143.016C676.475 144.36 675.598 146.264 675.187 148.728ZM710.607 165.36C706.836 165.36 703.831 164.128 701.591 161.664C699.388 159.2 698.287 155.877 698.287 151.696C698.287 147.477 699.388 144.136 701.591 141.672C703.831 139.171 706.836 137.92 710.607 137.92C714.378 137.92 717.364 139.171 719.567 141.672C721.807 144.136 722.927 147.477 722.927 151.696C722.927 155.877 721.807 159.2 719.567 161.664C717.364 164.128 714.378 165.36 710.607 165.36ZM710.607 162.28C713.37 162.28 715.516 161.347 717.047 159.48C718.615 157.576 719.399 154.963 719.399 151.64C719.399 148.28 718.615 145.667 717.047 143.8C715.516 141.896 713.37 140.944 710.607 140.944C707.844 140.944 705.679 141.896 704.111 143.8C702.58 145.667 701.815 148.28 701.815 151.64C701.815 154.963 702.58 157.576 704.111 159.48C705.679 161.347 707.844 162.28 710.607 162.28ZM733.373 164.24C733.373 164.427 733.279 164.52 733.093 164.52H730.181C729.994 164.52 729.901 164.427 729.901 164.24V139.04C729.901 138.853 729.994 138.76 730.181 138.76H732.533C732.719 138.76 732.813 138.853 732.813 139.04L733.205 141.84C734.287 140.72 735.594 139.787 737.125 139.04C738.693 138.293 740.466 137.92 742.445 137.92C745.207 137.92 747.298 138.723 748.717 140.328C750.173 141.933 750.901 144.472 750.901 147.944V164.24C750.901 164.427 750.807 164.52 750.621 164.52H747.709C747.522 164.52 747.429 164.427 747.429 164.24V148.056C747.429 145.443 746.906 143.632 745.861 142.624C744.853 141.616 743.415 141.112 741.549 141.112C739.981 141.112 738.45 141.523 736.957 142.344C735.463 143.128 734.269 144.323 733.373 145.928V164.24Z" fill="#555566"/>
<path d="M50.9209 5C67.141 5 81.1064 14.6545 87.3838 28.5303C95.1902 14.4964 110.168 5.00002 127.366 5H133.461C156.955 5.00013 176 24.0454 176 47.5391C176 71.0328 156.955 90.079 133.461 90.0791H133.539C156.989 90.0791 176 109.089 176 132.539C176 155.989 156.989 175 133.539 175H127.366C110.168 175 95.1901 165.503 87.3838 151.469C81.1065 165.345 67.1413 175 50.9209 175H46C23.9086 175 6 157.091 6 135V45C6 22.9086 23.9086 5 46 5H50.9209Z" fill="#A594F9"/>
</g>
<defs>
<clipPath id="clip0_402_957">
<rect width="898" height="180" fill="white"/>
</clipPath>
</defs>
</svg>
