<svg width="1200" height="630" viewBox="0 0 1200 630" fill="none" xmlns="http://www.w3.org/2000/svg">
  <rect width="1200" height="630" fill="#FAFAFA"/>

  <!-- 큰 K-shape 중앙 배치 -->
  <g transform="translate(440, 140) scale(1.95)">
    <path d="M50.9209 5C67.141 5 81.1064 14.6545 87.3838 28.5303C95.1902 14.4964 110.168 5.00002 127.366 5H133.461C156.955 5.00013 176 24.0454 176 47.5391C176 71.0328 156.955 90.079 133.461 90.0791H133.539C156.989 90.0791 176 109.089 176 132.539C176 155.989 156.989 175 133.539 175H127.366C110.168 175 95.1901 165.503 87.3838 151.469C81.1065 165.345 67.1413 175 50.9209 175H46C23.9086 175 6 157.091 6 135V45C6 22.9086 23.9086 5 46 5H49.9209Z" fill="#A594F9"/>
  </g>
</svg>
