<svg width="170" height="170" viewBox="0 0 170 170" fill="none" xmlns="http://www.w3.org/2000/svg">
<path d="M44.9209 0C61.141 1.41801e-06 75.1064 9.65447 81.3838 23.5303C89.1902 9.49643 104.168 1.9672e-05 121.366 0H127.461C150.955 0.000126455 170 19.0454 170 42.5391C170 66.0328 150.955 85.079 127.461 85.0791H127.539C150.989 85.0791 170 104.089 170 127.539C170 150.989 150.989 170 127.539 170H121.366C104.168 170 89.1901 160.503 81.3838 146.469C75.1065 160.345 61.1413 170 44.9209 170H40C17.9086 170 2.16207e-06 152.091 0 130V40C1.93129e-06 17.9086 17.9086 -1.93129e-06 40 0H44.9209Z" fill="#FF9DE5" fill-opacity="0.8"/>
</svg>
