<svg width="170" height="170" viewBox="0 0 170 170" fill="none" xmlns="http://www.w3.org/2000/svg">
<path d="M127.5 0C150.972 6.4426e-07 170 19.0279 170 42.5V141.667C170 157.315 157.315 170 141.667 170C126.019 170 113.333 157.315 113.333 141.667C113.333 157.315 100.648 170 85 170C69.352 170 56.6672 157.315 56.667 141.667C56.6668 157.315 43.981 170 28.333 170C12.6852 170 0.000172283 157.315 0 141.667V42.5C0 19.0279 19.0279 0 42.5 0C65.9721 6.4426e-07 85 19.0279 85 42.5L85.0137 41.4033C85.5953 18.4381 104.395 0 127.5 0Z" fill="#FFFB90" fill-opacity="0.8"/>
</svg>
